<svg id="Layer_1" data-name="Layer 1" xmlns="http://www.w3.org/2000/svg" viewBox="0 0 764.71 766.49"><defs><style>.cls-1{fill:#fff;}.cls-2{fill:none;stroke:#000;stroke-linecap:round;stroke-linejoin:round;stroke-width:2px;}</style></defs><ellipse cx="382.35" cy="383.25" rx="540.73" ry="541.99"/><path class="cls-1" d="M6923.54,7324.83l29.5-41.52-54.24-54.77,55-55.54-30.27-43,320.77-253.17,320.37,252.8c-8.72,15.2-20,28.16-29.78,43.35l55,55.24-54.21,54.88,29.62,41.81-320.69,255.41Q7083.91,7452.46,6923.54,7324.83Z" transform="translate(-6867.65 -6851.25)"/><path d="M7244.45,6895.12,7340,7028.68c-3.67,1.82-6.49,3.26-9.35,4.64q-108.67,52.62-127.94,171.82c-2,12.54-1.69,25.46-3.31,38.1-7.19,56-37.36,94.28-89.9,114.92a44.45,44.45,0,0,1-4.24,1.35c-.85.24-1.73.33-3.56.66l-9.89-13.52c61.09-20,94.37-60,91.95-125-1-26.32-12.25-49.28-30.2-68.77s-40-31.32-67.1-36.54l10-14.64c21.18,4.61,39.41,14.45,55.9,27.91,16.3,13.31,27.69,30.54,37.51,49l2.09-.22,6.24-19.82c-20.9-35.38-50.7-58.84-90.58-71.66,3.86-5.66,7.23-10.63,10.82-15.9,36.4,11.86,64.53,34,87.84,65.44l8.85-16.32c-22.41-29.32-50.87-49.78-85.93-63.55l9.46-13.41c34.32,12.17,61.48,33.12,85.86,60l10.21-13.27c-23.25-27.48-51.91-46.75-85.77-61.22C7180.63,6983.87,7212.21,6940,7244.45,6895.12Z" transform="translate(-6867.65 -6851.25)"/><path d="M7392,7101.63l10,13.7c-61.3,16.27-97.16,53.92-98.3,118-.76,42.37,25.87,95,93.17,112.92l-10.27,14.53c-41.61-12.2-70.19-38.41-88.87-76.4-4.45,5.34-5,6.75-8,20.84,19.17,33.64,48.07,56.43,86.25,70.09-3.91,5.6-7.32,10.48-10.84,15.5-17.68-5.49-32.53-14.53-46.6-25s-25.48-23.66-37.42-38.73l-8.62,16.18c21.64,28.28,48.9,48.42,82.09,62.22l-9.69,13.28c-32.52-12.29-58.56-32.75-82.58-59.1-1.39,2.27-2.25,3.8-3.22,5.25-2,2.92-4,5.79-6.16,9,22.7,26.22,50,45.11,81.83,59.45l-89.43,125.06c-5.69-4.25-82.43-110.2-91.59-126.32,3-1.59,6.05-3.22,9.12-4.76q72.53-36.27,105.42-110.39a214.44,214.44,0,0,0,18.32-82.07c1.07-39.86,15.42-73.94,44.68-101.48C7347.33,7118.24,7371.16,7105.54,7392,7101.63Z" transform="translate(-6867.65 -6851.25)"/><path d="M7414.05,7132.26,7482.4,7227l-73.76,103c-49.82-4.46-88.43-49.3-87.72-101C7321.68,7174,7367.88,7133.61,7414.05,7132.26Z" transform="translate(-6867.65 -6851.25)"/><path d="M7079.86,7330.05l-73.53-102.8,68.34-94.9c44.29,1.38,89.26,40.12,92,92.27C7170,7285.74,7122.85,7326.33,7079.86,7330.05Z" transform="translate(-6867.65 -6851.25)"/><path d="M7276.9,7532.81c70.43-98.48,140.85-197,212-296.48,12.28,17.16,23.78,33.25,35,49C7520.28,7292.12,7293,7520.92,7276.9,7532.81Z" transform="translate(-6867.65 -6851.25)"/><path d="M6963.78,7286.83c10.82-15.17,21-29.41,31.16-43.62,1.2-1.68,2.61-3.19,3.77-4.59a8.66,8.66,0,0,1,1.24-.08,1.34,1.34,0,0,1,.79.27c1.72,2,3.54,4,5.08,6.14,69.19,96.75,138.37,193.52,205.38,287.26Z" transform="translate(-6867.65 -6851.25)"/><path d="M7205.59,6930.82,7001,7216.6c-5.89-4.42-27.39-33.33-35.55-47.66l238.63-239Z" transform="translate(-6867.65 -6851.25)"/><path d="M7488.85,7218l-204.2-285.17L7523,7170.33Z" transform="translate(-6867.65 -6851.25)"/><path d="M7369.94,7070.77l10.9,15.26c-7.35,3-14,5.39-20.36,8.43-54.3,26.11-84.52,69.19-90.26,129.19-1.75,18.31-2.12,36.77-7,54.69-17.41,64.49-56.35,110.72-117.32,138.24a26.21,26.21,0,0,1-3.22.87l-8.71-12.14c3.49-1.73,6.26-3.15,9.08-4.5,46.55-22.31,79.67-57.2,98.1-105.56,7.34-19.28,11.61-39.29,11.08-60.08-1.16-45.73,15.11-84.9,45.52-118.29C7317.31,7095.45,7341.21,7080.23,7369.94,7070.77Z" transform="translate(-6867.65 -6851.25)"/><path d="M7350.62,7043.72l8.62,12.17c-2.76,1.36-5,2.58-7.31,3.58q-79.41,33.82-108,115.26a153.34,153.34,0,0,0-8.66,53.36c.71,49.61-17.45,91.48-52.94,125.9a164.89,164.89,0,0,1-48.55,32.59c-3.19,1.4-6.56,2.4-10.48,3.82l-10.57-14.65c3.17-1.54,5.44-2.76,7.79-3.77,58.83-25.43,90.86-70.46,97.25-133.86,1.78-17.7,1.61-35.59,6.36-52.94,18.1-66.12,58.39-113,121.48-140A51.47,51.47,0,0,1,7350.62,7043.72Z" transform="translate(-6867.65 -6851.25)"/><path d="M7550.72,7132.05c-8.21,11.43-15.62,21.73-22.52,31.32l-234.46-233.31.29-.47Z" transform="translate(-6867.65 -6851.25)"/><path d="M6960.26,7163.39c-6.93-9.73-14.3-20.07-22.34-31.37l253.7-200.14.6.79Z" transform="translate(-6867.65 -6851.25)"/><path d="M7527.82,7290.85c7.14,9.88,13.4,18.49,19.6,27.15,1,1.4,1.74,3,3,5.18L7297.86,7524.3l-1.22-1.37Z" transform="translate(-6867.65 -6851.25)"/><path d="M6959.75,7292.35l232.14,230.89-.78,1-253-201.27Z" transform="translate(-6867.65 -6851.25)"/><path d="M7495.52,7227.15l35.43-49.43,50,50.16L7531.3,7277Z" transform="translate(-6867.65 -6851.25)"/><path d="M6993.1,7227.29c-12.46,17.46-24.3,34-37,51.78l-50.71-50.73,51.52-51.61Z" transform="translate(-6867.65 -6851.25)"/><path class="cls-2" d="M7178.7,7495.64c10.4,12.48,20.77,25,31.23,37.4a29.4,29.4,0,0,0,4.42,3.6" transform="translate(-6867.65 -6851.25)"/><path class="cls-2" d="M7307,7499.21l-30.3,35.65" transform="translate(-6867.65 -6851.25)"/><path class="cls-2" d="M7282.09,6928.79,7316,6968.9" transform="translate(-6867.65 -6851.25)"/><path class="cls-2" d="M7205.44,6928.79q-15.15,18.28-30.31,36.55" transform="translate(-6867.65 -6851.25)"/><path class="cls-2" d="M7292.78,6928.79c7.13,6.84,14.11,13.84,21.43,20.46,8.44,7.62,17.19,14.9,25.81,22.33" transform="translate(-6867.65 -6851.25)"/><path class="cls-2" d="M7193,6932.36l-49,42.78" transform="translate(-6867.65 -6851.25)"/><path class="cls-2" d="M7348,7477.82l-51.69,46.34" transform="translate(-6867.65 -6851.25)"/><path class="cls-2" d="M7143.05,7479.6l49.91,44.56" transform="translate(-6867.65 -6851.25)"/><path class="cls-2" d="M7333.78,7433.25l-6.24,1.79" transform="translate(-6867.65 -6851.25)"/><path class="cls-2" d="M7411.32,7132c-.59,3.27-1.19,6.54-1.78,9.81" transform="translate(-6867.65 -6851.25)"/></svg>